<svg width="165" height="175" viewBox="0 0 165 175" fill="none" xmlns="http://www.w3.org/2000/svg"> <path d="M62.7648 152.688H57.5868C48.5838 152.688 41.8898 150.566 37.5049 146.321C33.12 142.123 30.9276 135.732 30.9276 127.149V103.078C30.9276 100.793 30.671 98.7635 30.1579 96.9909C29.6447 95.1716 28.7351 93.6555 27.429 92.4427C26.1695 91.1832 24.4668 90.2269 22.321 89.5738C20.2219 88.9208 17.5629 88.5942 14.3442 88.5942H11.3354V78.8682H14.3442C17.7495 78.8682 20.5251 78.5883 22.6709 78.0285C24.8167 77.4687 26.496 76.6291 27.7089 75.5095C28.9217 74.3433 29.7614 72.8739 30.2278 71.1013C30.6943 69.3287 30.9276 67.2295 30.9276 64.8038V48.2205C30.9276 44.3021 31.394 40.7801 32.327 37.6547C33.26 34.4827 34.776 31.8004 36.8752 29.608C39.021 27.3689 41.7732 25.6662 45.1318 24.5C48.5371 23.2872 52.6888 22.6808 57.5868 22.6808H62.7648V32.4768H58.6364C47.8141 32.4768 42.4029 37.7247 42.4029 48.2205V64.5239C42.4029 75.906 37.4816 82.3201 27.6389 83.7662C37.5749 84.7458 42.5429 91.1366 42.5429 102.938V126.869C42.5429 137.551 47.9074 142.892 58.6364 142.892H62.7648V152.688Z" fill="#e0ff4f"/> <path d="M102.255 22.6808H107.433C116.436 22.6808 123.13 24.8032 127.515 29.0482C131.9 33.2465 134.092 39.6373 134.092 48.2205V64.384C134.092 66.6697 134.349 68.7222 134.862 70.5415C135.375 72.3141 136.262 73.8302 137.521 75.0897C138.827 76.3025 140.553 77.2355 142.699 77.8885C144.845 78.5416 147.527 78.8682 150.746 78.8682H153.754V88.5942H150.746C147.34 88.5942 144.542 88.8741 142.349 89.4339C140.203 89.9937 138.524 90.8567 137.311 92.0229C136.098 93.1424 135.259 94.5885 134.792 96.3611C134.326 98.1337 134.092 100.233 134.092 102.659V127.149C134.092 131.067 133.626 134.589 132.693 137.714C131.76 140.887 130.244 143.569 128.145 145.761C126.046 148 123.293 149.703 119.888 150.869C116.483 152.082 112.331 152.688 107.433 152.688H102.255V142.892H106.453C117.229 142.892 122.617 137.645 122.617 127.149V102.938C122.617 91.5564 127.538 85.1656 137.381 83.7662C127.445 82.6933 122.477 76.2792 122.477 64.5239V48.5004C122.477 37.818 117.136 32.4768 106.453 32.4768H102.255V22.6808Z" fill="#e0ff4f"/> <line x1="58.1849" y1="56.7772" x2="106.369" y2="56.7772" stroke="#e0ff4f" stroke-width="9.17942"/> <line x1="58.185" y1="77.2848" x2="106.369" y2="77.2848" stroke="#e0ff4f" stroke-width="9.17942"/> <line x1="58.185" y1="97.7925" x2="106.369" y2="97.7925" stroke="#e0ff4f" stroke-width="9.17942"/> <line x1="58.185" y1="118.3" x2="106.369" y2="118.3" stroke="#e0ff4f" stroke-width="9.17942"/> </svg>
